<svg version="1.1" xmlns="http://www.w3.org/2000/svg" x="0px" y="0px" width="32px" height="32px" viewBox="0 0 32 32" preserveAspectRatio="xMidYMid"> <style> .fill-0 { fill: none; } .fill-1 > path, .duck-blue { fill: #1C75BC; } .fill-2, .duck-yellow { fill: #FFE30A; } .fill-3, .duck-light { fill: #FFF; } .fill-4, .duck-bill { fill: #EF821E; } .fill-5, .duck-dark { fill: #231F20; } .fill-6, .duck-orange { fill: #F15A29; } .stroke-1, .duck-outline { stroke: #231F20; stroke-width: 0.25; stroke-linecap: round; stroke-linejoin: round; stroke-miterlimit: 10; } </style> <g> <path class="fill-2 stroke-1" d="M14.02,30.336L13.282,32l2.91-0.37l4.515-1.294c0,0-4.16-3.232,0.287-4.734s6.941-5.623,6.941-5.623 s2.993-4.651,0.55-6.895c-0.382-0.351-0.768-0.696-0.981-1.172c-0.331-0.739-0.822-1.972-1.363-3.792 c-0.537-1.809-3.22-6.338-9.361-5.297c0,0-0.546-1.423,1.404-2.056c0,0-1.326-0.632-3.042,1.897c0,0,0.078-1.502-2.184-2.609 c0,0,1.248,1.344-0.078,3.241c0,0-4.176,0.223-6.487,4.314c-0.645,1.142-0.999,2.426-1.119,3.736 c-0.079,0.865,0.009,2.486-0.975,3.176c-1.336,0.938-2.98,3.303-0.328,7.572c0,0,2.265,3.025,7.349,3.734 C16.194,26.509,14.02,30.336,14.02,30.336L14.02,30.336z"/> <path class="fill-0 stroke-1" d="M7.037,17.621"/> <path class="fill-3" d="M8.57,20.997l7.649-3.769l6.635,3.769C22.854,20.997,16.584,27.228,8.57,20.997z"/> <path class="fill-4 stroke-1" d="M8.61,19.149c-2.951,1.555-3.339-0.751-3.201-1.645c0.138-0.895,0.693-1.994,2.909-1.366 c1.331,0.377,2.247,0.226,2.709,0.064c0.224-0.078,0.365-0.262,0.562-0.387c1.888-1.199,5.601-1.632,7.609-0.658 c1.807,0.876,3.038,0.415,3.915,0.013c0.337-0.154,0.714-0.162,1.09-0.175c1.446-0.051,2.926,1.297,1.698,2.952 c-1.178,1.588-2.674,0.416-2.674,0.416c1.781,1.554-0.019,2.812-1.283,2.796c-2.053-0.025-4.727-1.284-6.338-1.127 c-1.45,0.141-3.037,1.206-5.429,1.733c0,0-1.101,0.395-1.835-0.417C7.451,20.363,8.61,19.149,8.61,19.149"/> <path class="fill-0 stroke-1" d="M8.583,18.503c0,0-0.15,1.015,0.592,1.689"/> <path class="fill-0 stroke-1" d="M23.28,17.857c0,0,0.166,0.743-0.699,1.147"/> <ellipse transform="matrix(0.9989 -0.0472 0.0472 0.9989 -0.7761 0.6857)" class="fill-5 stroke-1" cx="14.127" cy="16.769" rx="0.229" ry="0.208"/> <ellipse transform="matrix(0.9989 -0.0472 0.0472 0.9989 -0.7631 0.8535)" class="fill-5 stroke-1" cx="17.684" cy="16.579" rx="0.229" ry="0.208"/> <path class="fill-4 stroke-1" d="M10.414,21.822c0,0,0.558,1.82,5.306,1.362c5.075-0.489,5.8-2.048,5.8-2.048s1.077,0.17,1.475-0.222 c0,0-0.95,2.611-6.928,3.175s-6.824-2.209-6.824-2.209L10.414,21.822"/> <line class="fill-0 stroke-1" x1="12.842" y1="20.981" x2="12.842" y2="23.155"/> <line class="fill-0 stroke-1" x1="14.387" y1="20.497" x2="14.387" y2="23.155"/> <line class="fill-0 stroke-1" x1="15.706" y1="20.196" x2="15.904" y2="23.181"/> <line class="fill-0 stroke-1" x1="16.829" y1="20.109" x2="17.226" y2="22.991"/> <line class="fill-0 stroke-1" x1="18.263" y1="20.497" x2="18.369" y2="22.761"/> <line class="fill-0 stroke-1" x1="19.734" y1="20.915" x2="19.734" y2="22.342"/> <line class="fill-0 stroke-1" x1="11.361" y1="21.55" x2="11.361" y2="22.642"/> <path class="fill-0 stroke-1" d="M20.845,21.221c0,0-0.764,0.228-5.139,0.543c-4.379,0.315-4.365,0.317-5.528,0"/> <path class="fill-5 stroke-1" d="M21.829,6.111c0,0,2.962-0.715,2.294,2.139C24.123,8.25,24.192,6.334,21.829,6.111z"/> <path class="fill-5 stroke-1" d="M7.862,8.517c0,0-0.265-2.39,2.518-1.857C10.38,6.66,8.704,6.774,7.862,8.517z"/> <path class="fill-3 stroke-1" d="M12.288,15.441c0.362-3.164-0.408-4.446-1.166-4.96c-0.564-0.382-1.286-0.386-1.896-0.086 c-2.657,1.306-1.553,5.6-1.553,5.6s2.443,0.789,3.529,0.117C12.288,15.441,12.288,15.441,12.288,15.441z"/> <path class="fill-3 stroke-1" d="M19.253,14.911c-0.138-0.06-0.495-5.457,2.83-5.18c3.383,0.283,1.765,5.18,1.765,5.18 s-0.431,0.163-1.751,0.629C20.786,16.004,19.253,14.911,19.253,14.911"/> <path class="fill-5" d="M11.934,12.058c0,0-2.887-0.763-2.764,2.374c0,0,0.121,1.401,1.219,1.631l1.059-0.295l0.84-0.748 C12.288,15.021,12.383,11.986,11.934,12.058z"/> <path class="fill-5" d="M19.659,11.912c0,0,1.832-1.463,2.944,0.409c0,0,0.66,1.803-0.506,3.22h-1.844l-1.064-0.694 C19.189,14.847,19.148,12.594,19.659,11.912z"/> <ellipse class="fill-3" cx="19.766" cy="13.344" rx="0.435" ry="0.441"/> <ellipse class="fill-3" cx="9.735" cy="13.894" rx="0.462" ry="0.468"/> <path class="fill-5" d="M17.364,6.868c0,0,0.465,0.018,0.42-1.655c-0.046-1.673,1.651-1.941,1.651-1.941s-1.404-0.795-2.663,0.906 c0,0,0.574-0.379,0.009-1.356"/> </g> </svg>